<svg width="24" height="24" viewBox="0 0 24 24" fill="none" xmlns="http://www.w3.org/2000/svg">
<path d="M12.0003 22.1878C17.6269 22.1878 22.188 17.6266 22.188 12C22.188 6.37347 17.6269 1.81226 12.0003 1.81226C6.37371 1.81226 1.8125 6.37347 1.8125 12C1.8125 17.6266 6.37371 22.1878 12.0003 22.1878Z" fill="#D6E5FF"/>
<path d="M12.0003 22.1878C17.6269 22.1878 22.188 17.6266 22.188 12C22.188 6.37347 17.6269 1.81226 12.0003 1.81226C6.37371 1.81226 1.8125 6.37347 1.8125 12C1.8125 17.6266 6.37371 22.1878 12.0003 22.1878Z" stroke="#003CD2" stroke-width="1.4" stroke-linecap="round" stroke-linejoin="round"/>
<path d="M16.572 8.47351L10.3027 16.3102L7.16797 13.9592" stroke="#003CD2" stroke-width="1.4" stroke-linecap="round" stroke-linejoin="round"/>
</svg>
