<svg width="204" height="120" viewBox="0 0 204 120" fill="none" xmlns="http://www.w3.org/2000/svg">
<g clip-path="url(#clip0_1931_74052)">
<path d="M189.507 12.0315C193.025 15.3151 180.182 30.7969 160.813 46.6038C141.444 62.4108 122.895 72.5696 119.377 69.286C115.859 66.0024 120.801 70.5584 113.164 63.4267C122.394 55.898 174.24 13.8694 183.457 6.37463C191.094 13.5063 187.665 10.3262 189.507 12.0315Z" fill="#5469D2"/>
<path d="M154.495 40.6719C173.862 24.8588 186.713 9.36999 183.199 6.07674C179.685 2.78349 161.136 12.9329 141.769 28.746C122.402 44.5591 109.551 60.0479 113.065 63.3411C116.579 66.6344 135.128 56.485 154.495 40.6719Z" fill="#8FABF2"/>
<path d="M128.149 47.8046L167.369 18.9148L164.474 22.4017L125.254 51.2915L128.149 47.8046ZM148.733 35.3051C150.076 34.2654 151.465 33.0423 152.898 31.6357C154.332 30.2291 155.687 28.7575 156.962 27.2209C157.829 26.1768 158.406 25.4095 158.695 24.9189C158.993 24.4207 159.034 24.1775 158.818 24.1894C158.594 24.2111 158.142 24.4733 157.463 24.9759C156.913 25.3751 156.325 25.8539 155.699 26.4124C155.065 26.9808 154.409 27.6008 153.732 28.2725C153.066 28.9366 152.378 29.643 151.669 30.3917C150.971 31.1328 150.27 31.8904 149.568 32.6646L146.632 35.8858C145.228 37.4342 143.81 38.9504 142.38 40.4343C140.95 41.9183 139.524 43.3421 138.102 44.7058C136.68 46.0694 135.276 47.3498 133.889 48.547C132.494 49.7541 131.134 50.85 129.809 51.8346C127.883 53.2565 126.598 54.0251 125.954 54.1403C125.313 54.2578 125.33 53.7293 126.003 52.5548C126.679 51.3825 128.039 49.5652 130.083 47.1027C132.111 44.6599 134.268 42.2429 136.555 39.8517C138.833 37.4704 141.16 35.2051 143.536 33.0558C145.913 30.9087 148.26 28.9691 150.575 27.2367L145.435 33.4274C144.318 34.2808 143.192 35.2263 142.057 36.264C140.924 37.3039 139.817 38.3905 138.738 39.5239C137.66 40.6595 136.663 41.7788 135.747 42.882C134.848 43.9655 134.232 44.7843 133.898 45.3385C133.557 45.9025 133.496 46.189 133.714 46.1982C133.933 46.2073 134.423 45.9301 135.184 45.3666C135.895 44.8411 136.659 44.1974 137.478 43.4357C138.289 42.6837 139.183 41.7979 140.16 40.7783C141.129 39.7686 142.211 38.6093 143.404 37.3005L147.004 33.3659C149.77 30.335 152.456 27.5706 155.062 25.0726C157.667 22.5746 160.134 20.4661 162.461 18.7472C164.384 17.3208 165.651 16.5708 166.264 16.4972C166.868 16.4335 166.852 16.9714 166.215 18.1109C165.579 19.2505 164.345 20.9235 162.513 23.1299C160.649 25.3756 158.62 27.6328 156.427 29.9013C154.226 32.1797 152.022 34.316 149.815 36.3103C147.608 38.3047 145.55 40.0135 143.643 41.4367L148.733 35.3051Z" fill="#5469D2"/>
<path d="M122.433 131.831C119.08 136.444 94.2889 128.002 67.0369 112.914C39.7848 97.8259 20.4242 81.8646 23.7771 77.2515C27.13 72.6384 22.4093 79.2081 29.6509 69.1685C42.6429 76.3411 115.332 116.596 128.276 123.723C121.035 133.763 124.19 129.396 122.433 131.831Z" fill="#5469D2"/>
<path d="M128.514 123.448C131.863 118.816 112.49 102.839 85.2413 87.7616C57.9928 72.6844 33.1879 64.217 29.838 68.8491C26.4882 73.4812 45.8619 89.4587 73.1103 104.536C100.359 119.613 125.164 128.08 128.514 123.448Z" fill="#8FABF2"/>
<path d="M101.45 109.593L53.2323 82.737L58.3053 83.521L106.523 110.377L101.45 109.593ZM79.1204 93.1429C77.4128 92.2675 75.4818 91.4941 73.3274 90.8226C71.173 90.151 68.9781 89.6425 66.7425 89.297C65.2235 89.0622 64.1312 88.9692 63.4658 89.018C62.7878 89.0597 62.4992 89.2198 62.6003 89.4982C62.7157 89.7788 63.1922 90.1505 64.0298 90.6135C64.6991 90.9949 65.4731 91.357 66.3517 91.7C67.2446 92.0452 68.2039 92.3728 69.2295 92.6829C70.2424 92.986 71.3113 93.2801 72.436 93.5651C73.548 93.843 74.6792 94.1088 75.8298 94.3625L80.6226 95.4367C82.9236 95.9439 85.1939 96.497 87.4335 97.0957C89.6731 97.6945 91.8436 98.3408 93.9452 99.0345C96.0468 99.7281 98.0482 100.472 99.9495 101.266C101.865 102.062 103.642 102.911 105.281 103.811C107.653 105.127 109.034 106.164 109.423 106.922C109.815 107.675 109.218 108.121 107.631 108.259C106.047 108.394 103.463 108.184 99.8805 107.63C96.3265 107.081 92.7489 106.336 89.1475 105.395C85.5605 104.457 82.0835 103.351 78.7165 102.078C75.3511 100.799 72.2302 99.3797 69.3538 97.8184L78.3605 99.2104C79.768 99.9484 81.2822 100.617 82.9031 101.216C84.5256 101.811 86.1895 102.328 87.8948 102.768C89.6017 103.204 91.2577 103.546 92.8627 103.794C94.4391 104.038 95.6046 104.137 96.3592 104.092C97.1282 104.049 97.4734 103.877 97.3949 103.577C97.3164 103.277 96.8076 102.867 95.8684 102.348C94.9927 101.864 93.9629 101.412 92.7788 100.992C91.6091 100.573 90.256 100.162 88.7194 99.7579C87.1971 99.3558 85.4622 98.9361 83.5145 98.4987L77.6549 97.1686C73.1437 96.153 68.963 95.0091 65.1129 93.737C61.2627 92.4648 57.9043 91.0336 55.0377 89.4435C52.6628 88.1366 51.3099 87.1064 50.9789 86.3528C50.6622 85.6015 51.27 85.1472 52.8022 84.9899C54.3345 84.8325 56.7056 85.0019 59.9157 85.4981C63.183 86.0031 66.5298 86.7174 69.9559 87.641C73.3963 88.5669 76.6793 89.6226 79.8047 90.808C82.9302 91.9934 85.6757 93.2313 88.0411 94.5216L79.1204 93.1429Z" fill="#5469D2"/>
</g>
<defs>
<clipPath id="clip0_1931_74052">
<rect width="204" height="120" fill="white"/>
</clipPath>
</defs>
</svg>
